<?xml version="1.0" encoding="UTF-8" standalone="no"?>
<!-- Created with Inkscape (http://www.inkscape.org/) -->

<svg
   version="1.1"
   id="svg2"
   width="1965.9333"
   height="590"
   viewBox="0 0 1965.9333 590"
   sodipodi:docname="Mahina Mermaid Core_m_thick-TM (1).eps"
   xmlns:inkscape="http://www.inkscape.org/namespaces/inkscape"
   xmlns:sodipodi="http://sodipodi.sourceforge.net/DTD/sodipodi-0.dtd"
   xmlns="http://www.w3.org/2000/svg"
   xmlns:svg="http://www.w3.org/2000/svg">
  <defs
     id="defs6" />
  <sodipodi:namedview
     id="namedview4"
     pagecolor="#ffffff"
     bordercolor="#000000"
     borderopacity="0.25"
     inkscape:showpageshadow="2"
     inkscape:pageopacity="0.0"
     inkscape:pagecheckerboard="0"
     inkscape:deskcolor="#d1d1d1" />
  <g
     id="g8"
     inkscape:groupmode="layer"
     inkscape:label="ink_ext_XXXXXX"
     transform="matrix(1.3333333,0,0,-1.3333333,0,590)">
    <g
       id="g10"
       transform="scale(0.1)">
      <path
         d="m 6470.82,2849.82 c 2.58,157.31 13.09,305.37 31.47,444.35 7.86,68.16 17.67,136.93 29.5,206.43 11.76,69.45 26.83,138.24 45.21,206.42 7.86,28.82 20.27,75.34 37.35,139.6 17.01,64.2 37.94,128.42 62.91,192.67 24.9,64.21 48.55,128.28 78.72,178.13 30.08,49.75 64.81,67.65 96.26,67.65 44.54,0 81.22,-19.05 110.1,-57.03 28.83,-38.03 51.13,-82.58 66.87,-133.7 15.71,-51.09 25.53,-102.22 29.47,-153.34 3.93,-51.13 3.52,-77.27 1.96,-115.98 -6.74,-68.1 -11.21,-140.19 -35.38,-259.52 -7.44,-36.86 -16.41,-74.11 -25.55,-112.09 -9.24,-38.06 -19.07,-75.38 -29.49,-112.09 -102.25,-346.04 -267.4,-672.38 -495.47,-979.12 -5.27,167.76 -6.57,330.32 -3.93,487.62 z m 8255.58,-918.2 c -25,17.05 -62.4,8.49 -112.1,-25.55 -44.6,-31.43 -90.5,-64.27 -137.6,-98.31 -47.3,-34.07 -95.1,-65.54 -143.6,-94.36 -48.5,-28.83 -97,-52.44 -145.5,-70.77 -48.5,-18.39 -93.7,-27.55 -135.6,-27.55 -52.5,0 -94.4,13.77 -125.9,41.34 -31.4,27.47 -59.6,57.65 -84.5,90.41 -25,32.77 -51.8,62.93 -80.6,90.43 -28.9,27.55 -66.8,41.29 -114,41.29 -28.9,0 -65.6,-22.3 -110.1,-66.84 -44.6,-44.61 -92.4,-93.77 -143.6,-147.48 -51.1,-53.74 -102.9,-102.85 -155.3,-147.39 -52.5,-44.62 -99.6,-66.89 -141.5,-66.89 -76.1,0 -132.4,28.82 -169.1,86.5 -36.8,57.62 -55.1,124.51 -55.1,200.55 0,47.19 7.2,95.01 21.6,143.53 14.4,48.48 36.1,93.03 64.9,133.69 28.9,40.59 64.2,74.03 106.2,100.29 41.9,26.18 91.7,39.29 149.4,39.29 52.4,0 89.8,-13.11 112.1,-39.29 22.2,-26.26 41.3,-45.92 57,-59.03 28.8,-26.21 61.5,-39.29 98.3,-39.29 36.7,0 66.8,14.41 90.4,43.24 23.6,28.82 35.4,55.08 35.4,78.66 0,20.96 -13.7,37.38 -41.2,49.14 -27.6,11.81 -60.4,20.28 -98.4,25.56 -38,5.2 -76,8.49 -114,9.82 -38,1.31 -65.1,0.72 -83.4,0.37 -80.2,-1.66 -161.2,-15.71 -241,-33.76 -70.8,-15.77 -147.5,-42.65 -230,-80.64 -82.6,-38.01 -154,-71.42 -214.3,-100.24 -24.9,-12.44 -52.5,-27.97 -82.3,-46.18 -14.9,-8.73 -165.4,-109.16 -236.2,-160.29 -70.8,-51.09 -139.6,-97.64 -206.4,-139.58 -66.9,-41.96 -129.8,-75.37 -188.8,-100.24 -59,-24.96 -112.1,-37.4 -159.3,-37.4 -60.3,0 -119.9,28.16 -178.9,84.54 -58.9,56.39 -117.3,117.97 -175,184.82 -57.6,66.86 -114.7,127.11 -171,180.88 -56.4,53.7 -109.5,80.59 -159.3,80.59 -55,0 -107.5,-24.2 -157.2,-72.69 -49.9,-48.56 -96.4,-101.67 -139.6,-159.29 -43.3,-57.68 -82,-111.45 -116,-161.21 -34.1,-49.81 -61.6,-77.37 -82.6,-82.6 -2.6,2.61 -2,18.33 1.9,47.23 4,28.83 8.5,62.9 13.8,102.22 5.3,39.32 10.5,78.62 15.7,117.94 5.3,39.32 7.9,69.46 7.9,90.49 0,52.37 -20.3,90.42 -61,114.05 -40.6,23.56 -82,30.53 -125.7,23.6 -92.2,-14.6 -165.9,-55.11 -241.9,-102.26 -14.1,-8.75 -209.69,-133.11 -290.95,-178.95 -81.26,-45.87 -161.88,-87.17 -241.81,-123.82 -80.03,-36.79 -152.72,-67.55 -218.23,-92.43 -65.58,-24.95 -114.05,-37.38 -145.49,-37.38 -44.63,0 -81.96,7.88 -112.1,23.61 -30.15,15.7 -55.71,41.92 -76.64,78.64 -20.99,36.65 -38.05,87.14 -51.13,151.38 -13.14,64.21 -22.31,146.1 -27.51,245.75 -5.29,60.3 -19.68,102.27 -43.28,125.88 -23.59,23.58 -57.69,35.37 -102.24,35.37 -44.6,0 -87.18,-8.56 -127.76,-25.54 -40.7,-17.13 -83.26,-39.99 -127.81,-68.82 -44.61,-28.89 -94.37,-64.28 -149.46,-106.2 -15.55,-11.85 -205.85,-144.98 -292.88,-196.57 -79.17,-46.96 -150.78,-94.39 -220.2,-133.69 -69.5,-39.32 -131.72,-72.17 -186.76,-98.31 -55.09,-26.26 -94.41,-39.32 -117.98,-39.32 -73.45,0 -137.65,28.82 -192.68,86.47 -55.05,57.65 -105.57,121.92 -151.42,192.68 -45.88,70.83 -88.45,134.99 -127.78,192.67 -39.33,57.65 -79.99,86.52 -121.91,86.52 -28.86,0 -64.26,-18.35 -106.15,-55.04 -41.97,-36.76 -85.23,-81.29 -129.76,-133.7 -44.6,-52.48 -88.47,-106.17 -131.74,-161.21 -43.26,-55.05 -80.6,-100.96 -112.07,-137.63 -7.85,-7.86 -15.72,-15.13 -23.58,-21.6 -7.88,-6.61 -15.74,-9.84 -23.6,-9.84 v 43.2 l -11.8,617.37 c 133.69,170.41 246.38,346.63 338.18,528.88 91.72,182.19 167.73,371.59 228.06,568.22 13.09,39.33 24.88,78.65 35.38,117.98 10.45,39.32 20.97,79.92 31.46,121.89 10.46,41.9 22.91,94.37 37.36,157.26 14.38,62.94 24.2,128.43 29.5,196.61 5.2,68.15 3.92,134.31 -3.94,198.59 -7.87,64.2 -31.41,116.92 -58.96,167.12 -17.16,26.81 -36.76,53.1 -62.94,72.75 -26.22,19.66 -55.73,34.71 -88.48,45.22 -32.8,10.43 -66.22,16.34 -100.26,17.69 -34.1,1.29 -66.84,-0.67 -98.31,-5.9 -81.3,-15.74 -146.17,-49.14 -194.64,-100.27 -48.54,-51.13 -87.87,-110.77 -117.96,-178.93 -30.18,-68.2 -52.49,-139.59 -66.84,-214.29 -14.45,-74.71 -26.93,-144.89 -37.38,-210.36 -39.32,-256.95 -58.96,-517.78 -58.96,-782.49 0,-133.69 3.93,-262.18 11.76,-385.36 7.88,-123.27 14.42,-247.73 19.69,-373.61 -57.69,-68.14 -110.11,-124.52 -157.29,-169.07 -47.18,-44.6 -194.47,-151.79 -201.06,-157.45 -18.03,-12.88 -36.09,-25.84 -54.52,-39.17 -47.18,-34.07 -95.05,-65.54 -143.52,-94.36 -48.55,-28.83 -97.02,-52.44 -145.5,-70.77 -48.53,-18.39 -93.75,-27.55 -135.67,-27.55 -52.45,0 -94.37,13.77 -125.82,41.34 -31.45,27.47 -59.66,57.65 -84.55,90.41 -24.93,32.77 -51.78,62.93 -80.61,90.43 -28.86,27.55 -66.84,41.29 -114.01,41.29 -28.9,0 -65.56,-22.3 -110.12,-66.84 -44.6,-44.61 -92.39,-93.77 -143.53,-147.48 -51.1,-53.74 -102.91,-102.85 -155.32,-147.39 -52.47,-44.62 -99.66,-66.89 -141.55,-66.89 -76.07,0 -132.41,28.82 -169.08,86.5 -36.75,57.62 -55.08,124.51 -55.08,200.55 0,47.19 7.21,95.01 21.66,143.53 14.35,48.48 35.99,93.03 64.87,133.69 28.81,40.59 64.19,74.03 106.16,100.29 41.91,26.18 91.74,39.29 149.42,39.29 52.42,0 89.77,-13.11 112.08,-39.29 22.23,-26.26 41.28,-45.92 57.01,-59.03 28.83,-26.21 61.56,-39.29 98.32,-39.29 36.68,0 66.83,14.41 90.42,43.24 23.6,28.82 35.41,55.08 35.41,78.66 0,20.96 -13.77,37.38 -41.29,49.14 -27.53,11.81 -60.35,20.28 -98.3,25.56 -38.04,5.2 -76.08,8.49 -114.05,9.82 -38.02,1.31 -66.23,2.02 -84.54,2.02 -86.51,0 -157.71,-14.46 -239.86,-35.41 -70.78,-15.77 -146.66,-44.43 -230.04,-80.64 -83.62,-36.27 -149.96,-66.51 -214.3,-100.24 -31.15,-16.35 -66.84,-36.06 -106.16,-60.93 -10.42,-6.62 -21.31,-13.71 -32.65,-21.08 -9.98,-7.22 -113.1,-78.28 -117.94,-82 l -136.45,-95.52 c -91.78,-62.91 -186.16,-119.96 -283.1,-171.05 -97.01,-51.09 -179.59,-76.68 -247.75,-76.68 -44.59,0 -81.27,14.39 -110.09,43.23 -28.87,28.83 -51.09,71.43 -66.85,127.82 -15.73,56.31 -26.9,125.84 -33.41,208.4 -6.58,82.59 -11.18,177.56 -13.77,285.11 -2.65,96.9 -3.94,203.79 -3.94,320.45 0,116.6 0,241.81 0,375.49 0,167.74 7.2,353.27 21.64,556.45 14.38,203.11 28.14,427.92 41.29,674.37 0,15.72 -11.18,32.05 -33.43,49.12 -22.3,17.03 -48.54,32.77 -78.63,47.2 -30.18,14.38 -59.67,26.86 -88.49,37.37 -28.86,10.43 -49.49,14.05 -66.84,15.72 -39.24,3.76 -65.56,1.3 -78.65,-3.92 -13.15,-5.3 -20.34,-17.72 -21.62,-37.35 -1.36,-19.69 -1.36,-47.88 0,-84.56 1.28,-36.72 2.56,-78.98 -9.84,-145.5 -14.22,-76.35 -35.39,-175.65 -58.98,-298.84 -23.6,-123.26 -50.5,-256.96 -80.61,-401.08 -30.16,-144.2 -64.25,-289.02 -102.22,-434.52 -38.04,-145.47 -78.04,-277.22 -119.95,-395.19 -41.95,-117.98 -87.19,-214.29 -135.65,-288.99 -48.54,-74.71 -98.99,-112.1 -151.4,-112.1 -44.6,0 -83.93,28.83 -117.96,86.56 -34.1,57.61 -63.59,133.01 -88.47,226.04 -24.95,93.07 -45.89,199.91 -62.92,320.49 -17.07,120.58 -30.83,243.1 -41.3,367.68 -10.48,124.49 -18.35,246.38 -23.58,365.7 -5.29,119.25 -7.87,226.09 -7.87,320.45 -2.64,15.75 -7.24,30.09 -13.75,43.28 -6.58,13.11 -19.67,26.13 -39.33,39.32 -19.66,13.09 -48.54,26.17 -86.49,39.31 -38.06,13.09 -89.84,27.52 -155.33,43.26 -28.88,5.21 -51.13,1.29 -66.85,-11.79 -15.75,-13.15 -23.59,-30.17 -23.59,-51.13 0,-28.88 0.59,-57 1.96,-84.52 1.28,-27.56 1.97,-55.75 1.97,-84.54 0,-91.83 -2.64,-183.55 -7.86,-275.28 -5.29,-91.76 -13.14,-176.96 -23.61,-255.62 -13.15,-89.11 -30.16,-196.55 -51.11,-322.42 -21.02,-125.8 -48.54,-256.26 -82.58,-391.26 C 978.887,2280.27 937.602,2145.97 889.113,2012.28 840.57,1878.55 782.273,1758.64 714.141,1652.46 645.938,1546.32 548.07,1445.56 461.574,1380.08 326.863,1283.56 165.609,1258.53 26.1602,1302.69 c 0,0 -26.1602,10.85 -26.1602,-13.62 0,-40.55 30.125,-42.08 30.125,-42.08 113.473,-20.56 234.82,-14.29 357.789,10.61 95.281,18.66 182.328,53.6 257.387,103.87 119.285,79.92 217.586,184.85 294.926,314.6 77.293,129.76 138.263,277.22 182.853,442.34 44.54,165.17 77.29,332.91 98.3,503.35 20.96,170.38 34.03,337.47 39.32,501.33 5.24,163.82 7.86,307.35 7.86,430.58 l 39.32,-542.64 c 15.74,-157.26 39.95,-303.46 72.78,-438.43 32.73,-135.03 74.03,-250.37 123.83,-346.04 49.78,-95.69 105.5,-166.53 167.14,-212.34 61.56,-45.88 130.36,-59.65 206.45,-41.26 86.48,20.92 158.56,56.98 216.25,108.14 57.64,51.09 111.39,131.69 161.21,241.77 34.04,70.82 66.85,169.15 98.32,294.95 31.47,125.82 62.22,258.81 92.39,399.13 30.11,140.18 57.65,279.79 82.58,418.74 24.88,138.97 46.53,258.22 64.89,357.87 0,-57.72 0.61,-138.31 1.96,-241.83 1.28,-103.6 2.59,-211.75 3.94,-324.44 1.29,-112.73 2.57,-221.51 3.93,-326.38 1.29,-104.86 1.96,-186.12 1.96,-243.77 0,-180.87 7.18,-347.97 21.64,-501.33 14.37,-153.36 37.96,-285.79 70.77,-397.17 32.75,-111.47 77.96,-198.6 135.67,-261.5 57.62,-62.9 129.74,-94.37 216.26,-94.37 91.74,0 192,28.79 300.82,86.51 108.74,57.65 215.59,121.92 320.48,192.69 52.39,36.68 102.22,70.75 149.42,102.22 33.59,22.38 62.42,42.04 86.72,59.18 44.46,31.34 87.63,57.49 129.52,78.41 41.89,21.02 77.3,38 106.17,51.18 -26.25,-36.76 -46.57,-76.72 -60.96,-119.96 -14.43,-43.24 -21.62,-89.82 -21.62,-139.6 0,-39.34 9.83,-78.66 29.49,-117.94 19.66,-39.3 49.78,-76.09 90.44,-110.12 40.61,-34.08 93.01,-61.61 157.29,-82.57 64.2,-21.04 139.57,-31.46 226.1,-31.46 44.54,0 88.47,12.43 131.72,37.38 43.26,24.88 83.2,53.06 119.93,84.53 36.68,31.43 69.44,59.59 98.32,84.54 28.8,24.88 52.4,37.32 70.76,37.32 39.32,0 70.12,-11.76 92.42,-35.39 22.24,-23.53 43.24,-49.15 62.91,-76.64 19.66,-27.55 41.89,-52.5 66.84,-74.7 24.9,-22.34 60.96,-33.44 108.15,-33.44 55.04,0 117.96,17.02 188.73,51.09 70.8,34.05 144.16,76.05 220.2,125.88 76.02,49.76 151.39,102.18 226.11,157.26 74.7,55.05 133.51,101.85 194.17,149.45 15.72,12.29 45.31,37.39 51.58,43.19 39.33,36.72 81.24,78.67 125.84,125.88 2.59,-60.33 3.25,-121.3 1.97,-182.85 -1.36,-61.63 -3.34,-125.19 -5.91,-190.75 v -62.86 c 0,-15.74 0,-36.19 0,-61.29 0,-25.11 3.94,-49.16 11.81,-72.1 7.86,-23.02 18.98,-42.54 33.42,-58.69 14.36,-16.16 36,-22.94 64.88,-20.26 34.04,2.56 66.15,16.31 96.32,41.25 30.11,24.89 58.32,53.71 84.57,86.56 26.17,32.7 51.1,67.4 74.69,104.2 23.59,36.65 44.55,69.41 62.91,98.27 86.52,125.84 170.38,128.41 251.68,7.86 31.47,-44.61 62.9,-87.18 94.36,-127.81 31.45,-40.66 64.88,-77.32 100.3,-110.07 35.37,-32.81 73.32,-59.01 114,-78.65 40.62,-19.67 84.56,-29.51 131.75,-29.51 57.65,0 128.4,16.84 212.36,50.57 83.84,33.67 170.32,75.64 259.47,125.81 89.12,50.2 177.57,103.45 265.46,159.82 28.89,18.56 56.67,36.58 83.46,54.16 14.77,5.21 255.94,171.31 317.58,217.19 61.55,45.8 108.14,68.81 139.6,68.81 23.58,0 39.3,-9.83 47.2,-29.49 7.81,-19.67 13.06,-43.95 15.71,-72.77 2.57,-28.86 1.82,-54.9 0,-92.39 -1.6,-32.9 -2.05,-52.03 0,-84.53 2.57,-52.48 9.8,-104.25 21.63,-155.34 11.77,-51.08 30.1,-96.35 55.04,-135.66 24.89,-39.3 59.01,-71.48 102.24,-96.34 43.26,-24.95 98.94,-37.33 167.13,-37.33 94.32,0 188.06,17.67 281.12,53.03 93.03,35.39 182.85,79.29 269.37,131.76 86.51,52.45 168.39,108.16 245.75,167.14 77.31,59 148.73,110.68 214.33,155.3 4.9,3.27 9.3,6.4 13.5,9.53 9.1,5.43 18.4,10.79 27.7,16.01 35.4,19.67 70.1,29.5 104.2,29.5 26.2,0 43.3,-14.44 51.1,-43.2 7.9,-28.9 11.8,-62.94 11.8,-102.27 0,-49.81 -3.9,-94.37 -11.8,-133.68 -7.8,-39.34 -11.8,-77.39 -11.8,-114.03 0,-36.77 6.6,-72.78 19.7,-108.15 13.1,-35.38 38,-53.1 74.7,-53.1 34,0 75.3,24.87 123.9,74.69 48.4,49.79 96.3,104.21 143.5,163.19 47.2,59 90.4,113.36 129.8,163.19 39.3,49.79 66.8,74.7 82.6,74.7 31.4,0 70.7,-24.91 117.9,-74.7 47.2,-49.83 99.6,-105.55 157.3,-167.09 57.6,-61.65 121.9,-117.35 192.7,-167.11 70.8,-49.82 145.5,-74.71 224.1,-74.71 89.1,0 175,17.67 257.6,53.03 82.6,35.39 161.8,78.66 237.9,129.82 76,51.1 148.6,102.8 214.3,159.24 84.4,72.55 198.4,152.41 234.1,174.14 25.3,15.72 50.1,29.91 74.5,42.08 42,21.02 77.3,38 106.2,51.18 -26.2,-36.76 -46.6,-76.72 -61,-119.96 -14.4,-43.24 -21.6,-89.82 -21.6,-139.6 0,-39.34 9.9,-78.66 29.5,-117.94 19.7,-39.3 49.8,-76.09 90.4,-110.12 40.7,-34.08 93,-61.61 157.3,-82.57 64.2,-21.04 139.7,-31.46 226.1,-31.46 44.6,0 88.5,12.43 131.8,37.38 43.2,24.88 83.2,53.06 119.9,84.53 36.7,31.43 69.4,59.59 98.3,84.54 28.8,24.88 52.4,37.32 70.8,37.32 39.3,0 70.1,-11.76 92.4,-35.39 22.2,-23.53 43.3,-49.15 62.9,-76.64 19.7,-27.55 41.9,-52.5 66.9,-74.7 24.8,-22.34 60.9,-33.44 108.1,-33.44 55,0 117.9,17.02 188.7,51.09 70.8,34.05 144.2,76.05 220.2,125.88 76.1,49.76 151.4,102.18 226.1,157.26 74.7,55.05 143.5,104.84 206.5,149.41 26.1,18.33 26.8,36.01 2,53.07"
         style="fill:#231f20;fill-opacity:1;fill-rule:nonzero;stroke:none"
         id="path12" />
      <path
         d="m 9057.39,2829.86 c 0,-68.38 -57.83,-123.82 -129.18,-123.82 -71.35,0 -129.18,55.44 -129.18,123.82 0,68.37 57.83,123.79 129.18,123.79 71.35,0 129.18,-55.42 129.18,-123.79"
         style="fill:#231f20;fill-opacity:1;fill-rule:nonzero;stroke:none"
         id="path14" />
      <path
         d="M 4911.14,0 V 335.23 L 4752.9,138.742 4595.4,335.23 V 0 h -103.49 v 524.98 h 61.5 L 4752.9,274.492 4953.14,524.98 h 61.5 V 0 h -103.5"
         style="fill:#231f20;fill-opacity:1;fill-rule:nonzero;stroke:none"
         id="path16" />
      <path
         d="M 5840.38,312.73 V 215.238 H 5613.14 V 97.5 h 245.99 V 0 h -349.48 v 524.98 h 349.48 v -97.5 H 5613.14 V 312.73 h 227.24"
         style="fill:#231f20;fill-opacity:1;fill-rule:nonzero;stroke:none"
         id="path18" />
      <path
         d="m 6418.64,225.742 h 84.75 c 67.49,0 119.99,30.746 119.99,101.238 0,66.75 -52.5,100.5 -119.99,100.5 h -84.75 z m 74.99,299.238 c 147,0 228,-87 228,-198 0,-77.992 -42,-137.238 -113.25,-164.988 22.5,-14.254 45.75,-41.25 78,-92.2498 L 6731.38,0 h -116.25 l -33.74,52.5 c -40.5,62.242 -53.26,74.242 -105,75.742 h -57.75 V 0 h -103.49 v 524.98 h 178.48"
         style="fill:#231f20;fill-opacity:1;fill-rule:nonzero;stroke:none"
         id="path20" />
      <path
         d="M 7591.61,0 V 335.23 L 7433.37,138.742 7275.88,335.23 V 0 h -103.5 v 524.98 h 61.5 l 199.49,-250.488 200.24,250.488 h 61.5 V 0 h -103.5"
         style="fill:#231f20;fill-opacity:1;fill-rule:nonzero;stroke:none"
         id="path22" />
      <path
         d="m 8331.86,194.23 h 113.26 l -56.25,143.258 z M 8258.37,0 h -114.75 l 216,524.98 h 60.74 L 8633.36,0 h -114.75 l -37.5,95.9922 H 8295.87 L 8258.37,0"
         style="fill:#231f20;fill-opacity:1;fill-rule:nonzero;stroke:none"
         id="path24" />
      <path
         d="M 9307.63,97.5 V 0 h -229.5 v 97.5 h 63 v 329.98 h -63 v 97.5 h 229.5 v -97.5 h -63 V 97.5 h 63"
         style="fill:#231f20;fill-opacity:1;fill-rule:nonzero;stroke:none"
         id="path26" />
      <path
         d="m 9985.61,97.5 c 91.49,0 163.49,58.492 163.49,164.992 0,105.738 -72,164.988 -163.49,164.988 h -78.74 V 97.5 Z m 0,427.48 c 147.79,0 266.99,-110.25 266.99,-262.488 C 10252.6,109.492 10133.4,0 9985.61,0 h -182.23 v 524.98 h 182.23"
         style="fill:#231f20;fill-opacity:1;fill-rule:nonzero;stroke:none"
         id="path28" />
      <path
         d="m 10537.5,405.051 h -21.3 v 117.738 h -40.2 v 20.09 h 101.8 v -20.09 h -40.3 V 405.051"
         style="fill:#100f0d;fill-opacity:1;fill-rule:nonzero;stroke:none"
         id="path30" />
      <path
         d="m 10720.2,405.051 v 98.051 l -46.3,-58.282 -46.5,58.282 v -98.051 h -21.2 v 137.828 h 12.4 l 55.3,-69.899 55.3,69.899 h 12.2 V 405.051 h -21.2"
         style="fill:#100f0d;fill-opacity:1;fill-rule:nonzero;stroke:none"
         id="path32" />
    </g>
  </g>
</svg>
